<mxfile host="app.diagrams.net" agent="Mozilla/5.0 (Windows NT 10.0; Win64; x64; rv:127.0) Gecko/20100101 Firefox/127.0" version="24.7.17">
  <diagram name="Page-1" id="Mgi02jZ8uCTnm6Ko9byg">
    <mxGraphModel dx="1434" dy="782" grid="1" gridSize="10" guides="1" tooltips="1" connect="1" arrows="1" fold="1" page="1" pageScale="1" pageWidth="1200" pageHeight="1920" math="0" shadow="0">
      <root>
        <mxCell id="0" />
        <mxCell id="1" parent="0" />
        <mxCell id="t1jlAvWUbGmEH-_hblpW-1" value="Tanszék" style="rounded=0;whiteSpace=wrap;html=1;fillColor=#e1d5e7;strokeColor=#9673a6;" parent="1" vertex="1">
          <mxGeometry x="360" y="280" width="120" height="80" as="geometry" />
        </mxCell>
        <mxCell id="t1jlAvWUbGmEH-_hblpW-2" value="Oktató" style="rounded=0;whiteSpace=wrap;html=1;fillColor=#e1d5e7;strokeColor=#9673a6;" parent="1" vertex="1">
          <mxGeometry x="360" y="640" width="120" height="80" as="geometry" />
        </mxCell>
        <mxCell id="t1jlAvWUbGmEH-_hblpW-3" value="" style="endArrow=none;html=1;rounded=0;exitX=0.5;exitY=1;exitDx=0;exitDy=0;endFill=0;startArrow=classic;startFill=1;" parent="1" source="t1jlAvWUbGmEH-_hblpW-1" edge="1">
          <mxGeometry width="50" height="50" relative="1" as="geometry">
            <mxPoint x="300" y="490" as="sourcePoint" />
            <mxPoint x="420" y="490" as="targetPoint" />
            <Array as="points" />
          </mxGeometry>
        </mxCell>
        <mxCell id="t1jlAvWUbGmEH-_hblpW-4" value="T-O" style="rhombus;whiteSpace=wrap;html=1;fillColor=#d5e8d4;strokeColor=#82b366;" parent="1" vertex="1">
          <mxGeometry x="380" y="490" width="80" height="50" as="geometry" />
        </mxCell>
        <mxCell id="t1jlAvWUbGmEH-_hblpW-5" value="" style="endArrow=doubleBlock;html=1;rounded=0;endFill=1;startArrow=none;startFill=0;entryX=0.5;entryY=0;entryDx=0;entryDy=0;exitX=0.5;exitY=1;exitDx=0;exitDy=0;" parent="1" source="t1jlAvWUbGmEH-_hblpW-4" target="t1jlAvWUbGmEH-_hblpW-2" edge="1">
          <mxGeometry width="50" height="50" relative="1" as="geometry">
            <mxPoint x="420" y="560" as="sourcePoint" />
            <mxPoint x="470" y="570" as="targetPoint" />
          </mxGeometry>
        </mxCell>
        <mxCell id="t1jlAvWUbGmEH-_hblpW-6" value="Tantárgy" style="rounded=0;whiteSpace=wrap;html=1;fillColor=#e1d5e7;strokeColor=#9673a6;" parent="1" vertex="1">
          <mxGeometry x="720" y="640" width="120" height="80" as="geometry" />
        </mxCell>
        <mxCell id="t1jlAvWUbGmEH-_hblpW-7" value="" style="endArrow=doubleBlock;html=1;rounded=0;entryX=0;entryY=0.5;entryDx=0;entryDy=0;exitX=1;exitY=0.5;exitDx=0;exitDy=0;endFill=1;" parent="1" source="t1jlAvWUbGmEH-_hblpW-8" target="t1jlAvWUbGmEH-_hblpW-6" edge="1">
          <mxGeometry width="50" height="50" relative="1" as="geometry">
            <mxPoint x="600" y="680" as="sourcePoint" />
            <mxPoint x="650" y="630" as="targetPoint" />
          </mxGeometry>
        </mxCell>
        <mxCell id="t1jlAvWUbGmEH-_hblpW-8" value="O-T" style="rhombus;whiteSpace=wrap;html=1;fillColor=#d5e8d4;strokeColor=#82b366;" parent="1" vertex="1">
          <mxGeometry x="560" y="640" width="80" height="80" as="geometry" />
        </mxCell>
        <mxCell id="t1jlAvWUbGmEH-_hblpW-9" value="" style="endArrow=none;html=1;rounded=0;entryX=0;entryY=0.5;entryDx=0;entryDy=0;exitX=1;exitY=0.5;exitDx=0;exitDy=0;startArrow=doubleBlock;startFill=1;endFill=0;" parent="1" edge="1">
          <mxGeometry width="50" height="50" relative="1" as="geometry">
            <mxPoint x="480" y="679.5" as="sourcePoint" />
            <mxPoint x="560" y="679.5" as="targetPoint" />
          </mxGeometry>
        </mxCell>
        <mxCell id="t1jlAvWUbGmEH-_hblpW-10" value="" style="endArrow=none;html=1;rounded=0;" parent="1" edge="1">
          <mxGeometry width="50" height="50" relative="1" as="geometry">
            <mxPoint x="420" y="280" as="sourcePoint" />
            <mxPoint x="520" y="230" as="targetPoint" />
          </mxGeometry>
        </mxCell>
        <mxCell id="t1jlAvWUbGmEH-_hblpW-11" value="" style="endArrow=none;html=1;rounded=0;exitX=0.5;exitY=0;exitDx=0;exitDy=0;" parent="1" source="t1jlAvWUbGmEH-_hblpW-1" edge="1">
          <mxGeometry width="50" height="50" relative="1" as="geometry">
            <mxPoint x="395" y="270" as="sourcePoint" />
            <mxPoint x="420" y="220" as="targetPoint" />
          </mxGeometry>
        </mxCell>
        <mxCell id="t1jlAvWUbGmEH-_hblpW-12" value="" style="endArrow=none;html=1;rounded=0;exitX=0.5;exitY=0;exitDx=0;exitDy=0;" parent="1" source="t1jlAvWUbGmEH-_hblpW-1" target="t1jlAvWUbGmEH-_hblpW-13" edge="1">
          <mxGeometry width="50" height="50" relative="1" as="geometry">
            <mxPoint x="340" y="270" as="sourcePoint" />
            <mxPoint x="330" y="230" as="targetPoint" />
          </mxGeometry>
        </mxCell>
        <mxCell id="t1jlAvWUbGmEH-_hblpW-13" value="kar" style="ellipse;whiteSpace=wrap;html=1;fillColor=#fff2cc;strokeColor=#d6b656;" parent="1" vertex="1">
          <mxGeometry x="270" y="190" width="90" height="50" as="geometry" />
        </mxCell>
        <mxCell id="t1jlAvWUbGmEH-_hblpW-14" value="&lt;u&gt;kód&lt;/u&gt;" style="ellipse;whiteSpace=wrap;html=1;fillColor=#fff2cc;strokeColor=#d6b656;" parent="1" vertex="1">
          <mxGeometry x="375" y="170" width="90" height="50" as="geometry" />
        </mxCell>
        <mxCell id="t1jlAvWUbGmEH-_hblpW-15" value="név" style="ellipse;whiteSpace=wrap;html=1;fillColor=#fff2cc;strokeColor=#d6b656;" parent="1" vertex="1">
          <mxGeometry x="480" y="180" width="90" height="50" as="geometry" />
        </mxCell>
        <mxCell id="t1jlAvWUbGmEH-_hblpW-16" value="" style="endArrow=none;html=1;rounded=0;" parent="1" edge="1">
          <mxGeometry width="50" height="50" relative="1" as="geometry">
            <mxPoint x="280" y="680" as="sourcePoint" />
            <mxPoint x="360" y="680" as="targetPoint" />
          </mxGeometry>
        </mxCell>
        <mxCell id="t1jlAvWUbGmEH-_hblpW-17" value="név" style="ellipse;whiteSpace=wrap;html=1;fillColor=#fff2cc;strokeColor=#d6b656;" parent="1" vertex="1">
          <mxGeometry x="190" y="652.5" width="90" height="55" as="geometry" />
        </mxCell>
        <mxCell id="t1jlAvWUbGmEH-_hblpW-18" value="beosztás" style="ellipse;whiteSpace=wrap;html=1;fillColor=#fff2cc;strokeColor=#d6b656;" parent="1" vertex="1">
          <mxGeometry x="300" y="770" width="90" height="55" as="geometry" />
        </mxCell>
        <mxCell id="t1jlAvWUbGmEH-_hblpW-19" value="" style="endArrow=none;html=1;rounded=0;entryX=0.5;entryY=1;entryDx=0;entryDy=0;" parent="1" target="t1jlAvWUbGmEH-_hblpW-2" edge="1">
          <mxGeometry width="50" height="50" relative="1" as="geometry">
            <mxPoint x="350" y="770" as="sourcePoint" />
            <mxPoint x="400" y="720" as="targetPoint" />
          </mxGeometry>
        </mxCell>
        <mxCell id="t1jlAvWUbGmEH-_hblpW-20" value="" style="endArrow=none;html=1;rounded=0;entryX=0.5;entryY=1;entryDx=0;entryDy=0;" parent="1" target="t1jlAvWUbGmEH-_hblpW-2" edge="1">
          <mxGeometry width="50" height="50" relative="1" as="geometry">
            <mxPoint x="480" y="770" as="sourcePoint" />
            <mxPoint x="430" y="730" as="targetPoint" />
          </mxGeometry>
        </mxCell>
        <mxCell id="t1jlAvWUbGmEH-_hblpW-21" value="&lt;u&gt;neptunkód&lt;/u&gt;" style="ellipse;whiteSpace=wrap;html=1;fillColor=#fff2cc;strokeColor=#d6b656;" parent="1" vertex="1">
          <mxGeometry x="440" y="770" width="90" height="55" as="geometry" />
        </mxCell>
        <mxCell id="t1jlAvWUbGmEH-_hblpW-22" value="" style="endArrow=none;html=1;rounded=0;exitX=0.5;exitY=0;exitDx=0;exitDy=0;" parent="1" source="t1jlAvWUbGmEH-_hblpW-25" edge="1">
          <mxGeometry width="50" height="50" relative="1" as="geometry">
            <mxPoint x="710" y="780" as="sourcePoint" />
            <mxPoint x="780" y="720" as="targetPoint" />
          </mxGeometry>
        </mxCell>
        <mxCell id="t1jlAvWUbGmEH-_hblpW-23" value="" style="endArrow=none;html=1;rounded=0;entryX=0.5;entryY=1;entryDx=0;entryDy=0;exitX=0.5;exitY=0;exitDx=0;exitDy=0;" parent="1" source="t1jlAvWUbGmEH-_hblpW-26" target="t1jlAvWUbGmEH-_hblpW-6" edge="1">
          <mxGeometry width="50" height="50" relative="1" as="geometry">
            <mxPoint x="780" y="780" as="sourcePoint" />
            <mxPoint x="790" y="730" as="targetPoint" />
          </mxGeometry>
        </mxCell>
        <mxCell id="t1jlAvWUbGmEH-_hblpW-24" value="" style="endArrow=none;html=1;rounded=0;exitX=0.5;exitY=0;exitDx=0;exitDy=0;" parent="1" source="t1jlAvWUbGmEH-_hblpW-27" edge="1">
          <mxGeometry width="50" height="50" relative="1" as="geometry">
            <mxPoint x="880" y="780" as="sourcePoint" />
            <mxPoint x="780" y="720" as="targetPoint" />
          </mxGeometry>
        </mxCell>
        <mxCell id="t1jlAvWUbGmEH-_hblpW-25" value="név" style="ellipse;whiteSpace=wrap;html=1;fillColor=#fff2cc;strokeColor=#d6b656;" parent="1" vertex="1">
          <mxGeometry x="630" y="777.5" width="90" height="60" as="geometry" />
        </mxCell>
        <mxCell id="t1jlAvWUbGmEH-_hblpW-26" value="&lt;u&gt;neptunkód&lt;/u&gt;" style="ellipse;whiteSpace=wrap;html=1;fillColor=#fff2cc;strokeColor=#d6b656;" parent="1" vertex="1">
          <mxGeometry x="720" y="782.5" width="90" height="55" as="geometry" />
        </mxCell>
        <mxCell id="t1jlAvWUbGmEH-_hblpW-27" value="kredit" style="ellipse;whiteSpace=wrap;html=1;fillColor=#fff2cc;strokeColor=#d6b656;" parent="1" vertex="1">
          <mxGeometry x="810" y="780" width="90" height="55" as="geometry" />
        </mxCell>
        <mxCell id="t1jlAvWUbGmEH-_hblpW-28" value="" style="endArrow=none;html=1;rounded=0;entryX=0.433;entryY=0.036;entryDx=0;entryDy=0;entryPerimeter=0;" parent="1" target="t1jlAvWUbGmEH-_hblpW-29" edge="1">
          <mxGeometry width="50" height="50" relative="1" as="geometry">
            <mxPoint x="780" y="720" as="sourcePoint" />
            <mxPoint x="910" y="770" as="targetPoint" />
          </mxGeometry>
        </mxCell>
        <mxCell id="t1jlAvWUbGmEH-_hblpW-29" value="lezárás módja" style="ellipse;whiteSpace=wrap;html=1;fillColor=#fff2cc;strokeColor=#d6b656;" parent="1" vertex="1">
          <mxGeometry x="900" y="777.5" width="90" height="55" as="geometry" />
        </mxCell>
        <mxCell id="DzjBqVisYtnCukbL8xZM-3" value="" style="endArrow=none;html=1;rounded=0;entryX=0;entryY=0.5;entryDx=0;entryDy=0;" edge="1" parent="1">
          <mxGeometry width="50" height="50" relative="1" as="geometry">
            <mxPoint x="600" y="560" as="sourcePoint" />
            <mxPoint x="600" y="639" as="targetPoint" />
          </mxGeometry>
        </mxCell>
        <mxCell id="DzjBqVisYtnCukbL8xZM-4" value="tanév/félév" style="ellipse;whiteSpace=wrap;html=1;fillColor=#fff2cc;strokeColor=#d6b656;" vertex="1" parent="1">
          <mxGeometry x="560" y="510" width="80" height="57.5" as="geometry" />
        </mxCell>
      </root>
    </mxGraphModel>
  </diagram>
</mxfile>
